<svg width="400" height="300" viewBox="0 0 400 300" xmlns="http://www.w3.org/2000/svg">
  <defs>
    <linearGradient id="grad4" x1="0%" y1="0%" x2="100%" y2="100%">
      <stop offset="0%" style="stop-color:#fa709a;stop-opacity:1" />
      <stop offset="100%" style="stop-color:#fee140;stop-opacity:1" />
    </linearGradient>
  </defs>
  <rect width="400" height="300" fill="url(#grad4)"/>
  <rect x="50" y="50" width="300" height="200" fill="rgba(255,255,255,0.1)" stroke="rgba(255,255,255,0.3)" stroke-width="2" rx="10"/>
  <rect x="70" y="70" width="120" height="80" fill="rgba(255,255,255,0.8)" rx="5"/>
  <rect x="210" y="70" width="120" height="80" fill="rgba(255,255,255,0.8)" rx="5"/>
  <rect x="70" y="170" width="120" height="60" fill="rgba(255,255,255,0.8)" rx="5"/>
  <rect x="210" y="170" width="120" height="60" fill="rgba(255,255,255,0.8)" rx="5"/>
  <circle cx="100" cy="100" r="15" fill="#fa709a"/>
  <circle cx="250" cy="100" r="15" fill="#fee140"/>
  <rect x="80" y="120" width="60" height="4" fill="rgba(0,0,0,0.3)" rx="2"/>
  <rect x="80" y="130" width="40" height="4" fill="rgba(0,0,0,0.3)" rx="2"/>
  <rect x="220" y="120" width="80" height="4" fill="rgba(0,0,0,0.3)" rx="2"/>
  <rect x="220" y="130" width="60" height="4" fill="rgba(0,0,0,0.3)" rx="2"/>
  <text x="200" y="250" text-anchor="middle" fill="white" font-family="Arial, sans-serif" font-size="24" font-weight="bold">Dashboard</text>
  <text x="200" y="280" text-anchor="middle" fill="rgba(255,255,255,0.8)" font-family="Arial, sans-serif" font-size="14">React + Node.js</text>
</svg>
